HIERARCHY
ROOT Hips
{
	OFFSET 0.000000 0.000000 0.000000 
	CHANNELS 6 Xposition Yposition Zposition Yrotation Zrotation Xrotation 
	JOINT Lumbar
	{
		OFFSET 0.000000 0.000000 0.000000 
		CHANNELS 3 Zrotation Xrotation Yrotation
		JOINT Neck
		{
			OFFSET 0.000000 0.445665 0.000000 
			CHANNELS 3 Zrotation Xrotation Yrotation
			End Site
			{
				OFFSET 0.000000 0.227535 0.000000 
			}
		}
		JOINT RightShoulder
		{
			OFFSET 0.019635 0.377685 0.194865 
			CHANNELS 3 Zrotation Xrotation Yrotation
			JOINT RightElbow
			{
				OFFSET 0.000000 -0.243375 0.000000 
				CHANNELS 2 Zrotation Yrotation
				JOINT RightWrist
				{
					OFFSET 0.000000 -0.264825 0.000000 
					CHANNELS 2 Zrotation Xrotation
					End Site
					{
						OFFSET 0.006600 -0.176220 0.000990 
					}
				}
			}
		}
		JOINT LeftShoulder
		{
			OFFSET 0.019635 0.377685 -0.194865 
			CHANNELS 3 Zrotation Xrotation Yrotation
			JOINT LeftElbow
			{
				OFFSET 0.000000 -0.243375 0.000000 
				CHANNELS 2 Zrotation Yrotation
				JOINT LeftWrist
				{
					OFFSET 0.000000 -0.264825 0.000000 
					CHANNELS 2 Zrotation Xrotation
					End Site
					{
						OFFSET 0.006600 -0.176220 -0.000990 
					}
				}
			}
		}
	}
	JOINT RightHip
	{
		OFFSET 0.052140 -0.069960 0.075570 
		CHANNELS 3 Zrotation Xrotation Yrotation
		JOINT RightKnee
		{
			OFFSET 0.000000 -0.402270 0.000000 
			CHANNELS 1 Zrotation
			JOINT RightAnkle
			{
				OFFSET 0.000000 -0.404085 0.000000 
				CHANNELS 3 Zrotation Xrotation Yrotation
				End Site
				{
					OFFSET 0.204105 -0.089430 0.008415 
				}
			}
		}
	}
	JOINT LeftHip
	{
		OFFSET 0.052140 -0.069960 -0.075570 
		CHANNELS 3 Zrotation Xrotation Yrotation
		JOINT LeftKnee
		{
			OFFSET 0.000000 -0.402270 0.000000 
			CHANNELS 1 Zrotation
			JOINT LeftAnkle
			{
				OFFSET 0.000000 -0.404085 0.000000 
				CHANNELS 3 Zrotation Xrotation Yrotation
				End Site
				{
					OFFSET 0.204105 -0.089430 -0.008415 
				}
			}
		}
	}
}
MOTION
Frames: 20
Frame Time: 0.02
0.00025 9e-05 -1e-05 19.61223 -29.73171 -5.56684 50.06025 1.43893 -2.04004 1.75291 0.57691 -0.90815 -19.16401 -8.51403 -9.92279 28.81951 90.04823 3.58484 1.89889 -22.3501 11.69854 1.35994 46.28713 -103.88956 13.32292 -2.37954 43.60591 0.09987 -10.34951 -19.03654 -6.13364 -1.94264 -3.16442 46.4153 4.19362 10.19855 -24.96014 -6.22462 1.36408 2.87993
0.00022 8e-05 -4e-05 19.57663 -29.74355 -5.56423 50.04754 1.4512 -2.03546 1.7535 0.59651 -0.90855 -19.10415 -8.50187 -9.78213 28.80983 90.02837 3.59747 1.89242 -22.39366 11.95309 0.21987 46.28617 -103.70089 13.2626 -2.34848 43.6234 0.07918 -10.45303 -19.03937 -6.13427 -1.93581 -3.1602 46.43261 4.18262 10.14672 -24.96534 -6.22411 1.37143 2.88476
0.00018 8e-05 -8e-05 19.54106 -29.75536 -5.56163 50.03484 1.46349 -2.03081 1.75401 0.61613 -0.90895 -19.04445 -8.48972 -9.64185 28.80008 90.00857 3.61009 1.88596 -22.43741 12.20628 -0.9159 46.28574 -103.51298 13.20259 -2.31751 43.64086 0.05858 -10.55623 -19.04219 -6.1349 -1.92897 -3.15599 46.44986 4.17167 10.09508 -24.97053 -6.2236 1.37876 2.88958
0.00015 7e-05 -0.00011 19.50556 -29.76717 -5.55903 50.02217 1.47572 -2.02623 1.7546 0.63568 -0.90935 -18.98476 -8.47759 -9.50161 28.79041 89.98877 3.62269 1.87951 -22.48085 12.45988 -2.05224 46.28479 -103.32495 13.14248 -2.28655 43.6583 0.03796 -10.65943 -19.04501 -6.13552 -1.92216 -3.15179 46.46711 4.1607 10.04343 -24.97572 -6.22309 1.38608 2.8944
0.00012 6e-05 -0.00014 19.47006 -29.77902 -5.55641 50.0095 1.48794 -2.02174 1.75527 0.65518 -0.90974 -18.92495 -8.46544 -9.36102 28.78084 89.9689 3.63528 1.87305 -22.52407 12.71526 -3.19341 46.2833 -103.13598 13.08198 -2.25551 43.67579 0.01726 -10.76297 -19.04783 -6.13615 -1.91535 -3.14759 46.48443 4.14967 9.99156 -24.98092 -6.22257 1.39343 2.89922
9e-05 5e-05 -0.00018 19.43435 -29.79073 -5.55384 49.99674 1.50036 -2.01676 1.75542 0.67505 -0.91015 -18.86548 -8.45331 -9.22141 28.77072 89.94926 3.64795 1.86659 -22.56899 12.96396 -4.31794 46.28521 -102.95028 13.023 -2.22468 43.69318 -0.00315 -10.86544 -19.05065 -6.13678 -1.90845 -3.14336 46.50154 4.13889 9.94039 -24.98608 -6.22207 1.40074 2.90402
6e-05 4e-05 -0.00021 19.39913 -29.80271 -5.55119 49.98416 1.51233 -2.0128 1.7567 0.69416 -0.91053 -18.80537 -8.44114 -9.07995 28.76173 89.9292 3.66048 1.86015 -22.6102 13.22527 -5.47394 46.27976 -102.75847 12.96111 -2.19348 43.71073 -0.02411 -10.96994 -19.05346 -6.1374 -1.90175 -3.13919 46.51906 4.12764 9.88792 -24.99132 -6.22155 1.4081 2.90887
3e-05 3e-05 -0.00024 19.36339 -29.81444 -5.5486 49.97143 1.52476 -2.00782 1.75682 0.71398 -0.91094 -18.74589 -8.42905 -8.94024 28.75165 89.90948 3.6731 1.85367 -22.65527 13.47597 -6.60232 46.28204 -102.57179 12.90173 -2.16258 43.72814 -0.04457 -11.07256 -19.05628 -6.13803 -1.89487 -3.13497 46.53619 4.11679 9.83656 -24.99648 -6.22104 1.41542 2.91368
-0 2e-05 -0.00028 19.32724 -29.82588 -5.54615 49.95847 1.53758 -2.00189 1.75594 0.73466 -0.91137 -18.68696 -8.41686 -8.80245 28.74041 89.89035 3.68596 1.84723 -22.70338 13.70967 -7.69175 46.29013 -102.39336 12.84613 -2.13219 43.74536 -0.06443 -11.17298 -19.05913 -6.13867 -1.88775 -3.13067 46.55286 4.10653 9.7869 -25.00156 -6.22054 1.42268 2.91841
-4e-05 1e-05 -0.00031 19.29412 -29.83901 -5.54309 49.94667 1.54764 -2.00232 1.76206 0.75034 -0.91165 -18.62422 -8.40464 -8.65295 28.73637 89.86833 3.69781 1.84081 -22.72897 14.02905 -8.98969 46.25386 -102.17338 12.77089 -2.09932 43.76364 -0.08777 -11.28636 -19.06188 -6.13925 -1.88195 -3.12678 46.57223 4.09318 9.72848 -25.00717 -6.22 1.43023 2.92351
-6e-05 1e-05 -0.00034 19.25422 -29.84857 -5.5412 49.93253 1.56388 -1.98879 1.75261 0.77659 -0.91225 -18.56993 -8.39287 -8.52859 28.71682 89.85211 3.71155 1.83421 -22.80523 14.17544 -9.85768 46.3181 -102.03729 12.73572 -2.07136 43.77971 -0.10373 -11.37218 -19.0648 -6.13996 -1.87339 -3.12205 46.5859 4.08617 9.68788 -25.01161 -6.21953 1.43723 2.92788
-5e-05 2e-05 -0.00033 19.19869 -29.84823 -5.54339 49.91109 1.59449 -1.94098 1.70646 0.83175 -0.91361 -18.53565 -8.37936 -8.47047 28.65644 89.85458 3.73281 1.82806 -22.99762 13.77826 -9.44959 46.60555 -102.16604 12.82399 -2.05983 43.7893 -0.09945 -11.38363 -19.06836 -6.14098 -1.85682 -3.11482 46.5839 4.09805 9.70211 -25.0131 -6.21939 1.4421 2.92976
-2e-05 5e-05 -0.0003 19.13578 -29.84429 -5.54658 49.88746 1.6319 -1.87841 1.64342 0.89744 -0.91532 -18.51051 -8.36693 -8.43821 28.57999 89.86243 3.7556 1.82158 -23.24615 13.22 -8.62573 47.00442 -102.37346 12.95071 -2.05271 43.79672 -0.08776 -11.36732 -19.07207 -6.14213 -1.83752 -3.10677 46.57618 4.11601 9.73316 -25.01336 -6.2193 1.44653 2.93098
-0 7e-05 -0.00028 19.07432 -29.84207 -5.54878 49.8654 1.66779 -1.81998 1.58433 0.95849 -0.91687 -18.48322 -8.35581 -8.3958 28.50997 89.86594 3.77605 1.81462 -23.48265 12.78056 -8.05735 47.38567 -102.52119 13.0501 -2.04167 43.80542 -0.0794 -11.36268 -19.07558 -6.14324 -1.81977 -3.09921 46.57113 4.13022 9.75258 -25.01399 -6.21912 1.45155 2.93279
1e-05 9e-05 -0.00028 19.02094 -29.83958 -5.55329 49.84088 1.69668 -1.77234 1.54145 1.01933 -0.9183 -18.44727 -8.33673 -8.34631 28.44428 89.8772 3.80314 1.81024 -23.65815 12.14874 -7.21493 47.62467 -102.76666 13.18822 -2.0387 43.81296 -0.07107 -11.36134 -19.07957 -6.14425 -1.80079 -3.09118 46.56585 4.14862 9.78868 -25.01542 -6.21922 1.45487 2.93337
4e-05 0.00012 -0.00023 18.94892 -29.83671 -5.55315 49.82097 1.74225 -1.69876 1.46018 1.0826 -0.92025 -18.43179 -8.33494 -8.31814 28.36491 89.87393 3.81715 1.80047 -23.97926 11.87876 -6.8351 48.19025 -102.83159 13.25846 -2.01998 43.82231 -0.06109 -11.34738 -19.08267 -6.14551 -1.78363 -3.08389 46.55959 4.15973 9.79425 -25.01487 -6.21876 1.4617 2.93637
0.00011 0.0002 -8e-05 18.82789 -29.8343 -5.54078 49.81433 1.82807 -1.55689 1.28255 1.15437 -0.92204 -18.46835 -8.37714 -8.3383 28.25896 89.82721 3.79186 1.77548 -24.64437 12.65569 -7.91946 49.59628 -102.33924 13.09977 -1.95628 43.83795 -0.04699 -11.29778 -19.08283 -6.14731 -1.77299 -3.07935 46.5528 4.1489 9.7086 -25.00935 -6.21655 1.47788 2.94609
0.0002 0.0003 0.00012 18.68838 -29.8315 -5.52352 49.81233 1.93116 -1.38944 1.06593 1.22735 -0.92464 -18.5257 -8.43749 -8.37951 28.13843 89.7666 3.75419 1.74521 -25.46261 13.80186 -9.4683 51.3328 -101.66882 12.87709 -1.87652 43.85532 -0.03171 -11.23756 -19.0822 -6.14937 -1.76416 -3.07551 46.54507 4.13043 9.59152 -25.00186 -6.21381 1.49776 2.9583
0.00028 0.00039 0.00029 18.55673 -29.82851 -5.50796 49.80831 2.02912 -1.23392 0.86347 1.29696 -0.92784 -18.57486 -8.49167 -8.4142 28.01987 89.71299 3.7236 1.71758 -26.23948 14.77226 -10.74842 52.94118 -101.1071 12.70514 -1.80453 43.87143 -0.01793 -11.18753 -19.08218 -6.1514 -1.7539 -3.07099 46.53727 4.11587 9.4915 -24.99513 -6.21141 1.51616 2.96941
0.00035 0.00047 0.00046 18.42653 -29.82706 -5.4947 49.80418 2.11604 -1.07672 0.67515 1.37903 -0.92692 -18.61862 -8.53659 -8.43814 27.92051 89.65446 3.68559 1.68872 -26.89811 15.7664 -12.25598 54.46308 -100.43502 12.44443 -1.73122 43.88958 -2e-05 -11.11506 -19.081 -6.15308 -1.74596 -3.06786 46.53135 4.10027 9.38303 -24.98887 -6.20855 1.53342 2.98027
